<svg width="16" height="17" viewBox="0 0 16 17" fill="none" xmlns="http://www.w3.org/2000/svg">
<path id="Vector" d="M15.5633 1.20806C15.3086 1.06216 15.0539 1.13511 14.8356 1.35396L13.4892 2.70352C12.3618 1.63898 10.953 0.92171 9.43037 0.63717C7.9078 0.352631 6.33571 0.512814 4.9014 1.09864C2.98447 1.91487 1.45822 3.44472 0.643905 5.36617C0.219188 6.34434 0 7.39971 0 8.46651C0 9.53331 0.219188 10.5887 0.643905 11.5669C1.45822 13.4883 2.98447 15.0181 4.9014 15.8344C5.92999 16.291 7.04542 16.5178 8.17023 16.4989C9.29504 16.48 10.4023 16.2159 11.415 15.725C12.4703 15.2143 13.38 14.5213 14.1442 13.573C14.2169 13.5365 14.2169 13.4271 14.2169 13.3541L14.1078 13.1353L12.6886 11.7127C12.6158 11.6398 12.5431 11.6033 12.4339 11.6033C12.3247 11.6398 12.2519 11.6763 12.2156 11.7492C11.7204 12.3969 11.0806 12.9191 10.3474 13.2739C9.61433 13.6286 8.8084 13.806 7.99445 13.7918C6.58836 13.7822 5.24257 13.2181 4.24829 12.2215C3.25401 11.2249 2.69121 9.87591 2.68168 8.46651C2.69121 7.0571 3.25401 5.70814 4.24829 4.71152C5.24257 3.7149 6.58836 3.15077 7.99445 3.14122C9.41362 3.14122 10.6145 3.61539 11.6333 4.56373L10.2142 6.02271C9.99584 6.20508 9.92306 6.46041 10.0686 6.71573C10.1778 7.00752 10.3597 7.15342 10.6508 7.15342H15.3086C15.4906 7.15342 15.6725 7.08047 15.7817 6.93458C15.9272 6.82515 16 6.64278 16 6.46041V1.82813C16 1.53633 15.8544 1.31748 15.5633 1.20806Z" fill="white"/>
</svg>
